<?xml version="1.0" encoding="utf-8"?>
<!-- Generator: Adobe Illustrator 19.2.1, SVG Export Plug-In . SVG Version: 6.00 Build 0)  -->
<svg version="1.1" id="layer" xmlns="http://www.w3.org/2000/svg" xmlns:xlink="http://www.w3.org/1999/xlink" x="0px" y="0px"
	 viewBox="0 0 652 652" style="enable-background:new 0 0 652 652;" xml:space="preserve">
<style type="text/css">
	.st0{fill:#1F305F;}
	.st1{fill:#C0765A;}
	.st2{fill:#A0624D;}
</style>
<g id="g4445-4_3_" transform="translate(-1614.3646,-14.177857)">
	<g id="g4447-8_3_">
		<path id="path4449-4_3_" class="st0" d="M1885.1,250.1c-3.9,0.1-2.8,1.9-11.3,4c-8.6,2.1-19,0.8-28.3,4.7
			c-24.2,10.1-28.1,49.4-57,64.5c-18.9,10.7-38.2,13.1-55.4,18.5c-13.8,5.5-22.4,9.2-32.6,18c-7.9,6.8-9.8,13.4-18,21.9
			c-8.3,11.3-40,1.3-48.1,15.5c4.3,2.8,6.8,3.5,14.3,2.6c-1.6,3-11.5,6.8-9.7,11.2c0,0,24,4.4,44.2-7.8c9.4-3.8,18.3-11.9,32.9-13.9
			c19-2.5,40.3,4,63.3,5.8c-4.7,9.4-9.6,14.9-14.9,22.6c-1.6,1.7,1.4,3.3,6.9,2.2c10-2.5,17.2-5.2,24.4-10.1
			c9.4-6.5,13.4-12.4,21.3-21.8c6.9,11,31.1,13.4,36.1,3.9c-9.3-3.9-11.2-24.3-8.1-33.1c3.7-8.4,6.4-20.2,9.5-31.3
			c2.7-9.9,4.4-25.1,7.7-32.8c3.9-9.6,11.5-12.7,17.1-17.8c5.7-5.1,11.3-9.4,11.2-21.1C1890.7,252.1,1888.7,250,1885.1,250.1
			L1885.1,250.1z"/>
		<path id="path4451-9_3_" class="st1" d="M1641.7,409c14.9,0.4,18.9,0.1,30.6-5c10-4.3,23.3-16,35.1-19.8
			c17.3-5.6,35.9-4.7,54.3-2.6c6.2,0.7,12.4,1.8,16.8,1.3c6.9-4.2,7.2-15.7,11.5-16.7c-1.2,22.2-10.7,36.5-20.2,49.4
			c20.1-3.5,33.5-16.1,41.7-31.6c2.5-4.7,6.6-12.4,8.4-17.7c1.5,3.5-1.9,5.7-0.3,9.6c12.9-10.7,19-22.8,24.3-40.6
			c6.1-20.6,12.3-38.3,16.2-44.4c3.8-6,9.8-9.6,15.2-13.4c6.2-4.3,11.7-8.8,12.6-17.1c-6.5-0.6-8-2.1-9-5.4
			c-3.3,1.8-6.3,2.2-9.6,2.3c-2.9,0.1-6.2,0-10.1,0.4c-32.6,3.3-34.1,35.2-57.8,58.6c-1.5,1.5-4.1,3.7-5.9,5
			c-7.3,5.5-15.2,8.5-23.4,11.6c-13.4,5.1-26.1,6.6-38.6,11c-9.2,3.2-17.8,6.9-25.3,12.1c-1.9,1.3-4.5,3.6-6.1,4.9
			c-4.4,3.6-7.3,7.7-10.2,11.8c-2.9,4.3-5.7,8.7-10,12.9c-6.9,6.8-32.8,2-41.9,8.3c-1,0.7-1.8,1.5-2.4,2.6c5,2.3,8.3,0.9,14,1.5
			C1652.4,403.2,1639.8,406.5,1641.7,409L1641.7,409z"/>
		<path id="path4457-3_3_" class="st0" d="M1848.4,271c4.6,4,14.3,0.8,12.6-7.2C1853.8,263.2,1849.6,265.7,1848.4,271z"/>
		<path id="path4459-4_3_" class="st0" d="M1880.6,261.7c-1.2,2.6-3.6,5.9-3.6,12.4c0,1.1-0.9,1.9-0.9,0.2c0.1-6.4,1.8-9.2,3.6-12.8
			C1880.5,260,1881,260.6,1880.6,261.7z"/>
		<path id="path4461-6_3_" class="st0" d="M1879.3,260.7c-1.5,2.4-4.9,6.9-5.5,13.5c-0.1,1.1-1,1.8-0.9,0.1
			c0.6-6.4,3.4-10.4,5.5-13.8C1879.4,259,1879.9,259.7,1879.3,260.7z"/>
		<path id="path4463-0_3_" class="st0" d="M1878.2,259.4c-1.7,2.3-7,7.7-8.1,14.2c-0.2,1.1-1.2,1.7-0.9,0c1.2-6.3,5.8-11.3,8.2-14.5
			C1878.4,257.8,1878.8,258.5,1878.2,259.4z"/>
		<path id="path4465-8_3_" class="st0" d="M1877.2,258c-2,2.1-8.4,8.9-10.4,15.2c-0.4,1.1-1.4,1.5-0.9-0.1c2-6.1,7.6-12.6,10.5-15.5
			C1877.7,256.4,1878,257.1,1877.2,258L1877.2,258z"/>
	</g>
</g>
<g id="g4483-2_1_" transform="translate(-84.332895,80)">
	<g id="g4485-8_1_" transform="translate(1.2626907,0)">
		<path id="path4487-2_1_" class="st0" d="M597,208.7v45h-5.7v-7.7c-5.1,6.2-11,9.2-17.6,9.2c-6.6,0-12.2-2.3-16.8-7
			c-4.5-4.7-6.8-10.4-6.8-16.9c0-6.6,2.3-12.1,6.9-16.8c4.6-4.7,10.1-7,16.4-7c7.3,0,13.3,3.1,17.9,9.4v-8.2L597,208.7 M591.7,231.4
			c0-5.1-1.7-9.5-5.2-13c-3.4-3.6-7.7-5.3-12.7-5.3c-5,0-9.2,1.8-12.6,5.5c-3.4,3.6-5.2,7.9-5.2,12.9s1.8,9.3,5.3,13
			c3.5,3.6,7.7,5.4,12.5,5.4c4.9,0,9.1-1.8,12.6-5.3C589.9,241.1,591.7,236.7,591.7,231.4"/>
	</g>
	<g id="g4489-8_1_" transform="translate(0.50507628,0)">
		<path id="path4491-4_1_" class="st0" d="M609.3,253.7v-60.8h12.6c8.6,0,15,0.6,19,1.9c4.1,1.2,7.6,3.2,10.5,6
			c2.9,2.7,5.2,6,6.8,10c1.6,3.9,2.4,8.6,2.4,13.9c0,5.3-1.2,10.2-3.7,14.9c-2.4,4.6-5.8,8.1-10,10.5c-4.2,2.4-10.2,3.6-18.1,3.6
			H609.3 M615.1,247.9h7c7.3,0,12.7-0.4,15.9-1.1c3.3-0.7,6.2-2.2,8.7-4.3c2.5-2.2,4.4-4.9,5.7-8s1.9-6.7,1.9-10.7
			c0-4-0.8-7.7-2.3-11.1c-1.5-3.4-3.6-6.2-6.4-8.4c-2.8-2.2-6-3.7-9.8-4.4c-3.7-0.8-9.2-1.2-16.5-1.2h-4.3V247.9"/>
	</g>
	<g id="g4493-2_1_" transform="translate(0.50507628,0)">
		<path id="path4495-3_1_" class="st0" d="M533.7,196.1c0-1.3,0.4-2.4,1.4-3.4c1-1,2.1-1.4,3.4-1.4c1.4,0,2.5,0.5,3.4,1.4
			c1,0.9,1.4,2,1.4,3.4c0,1.3-0.5,2.4-1.4,3.4c-0.9,0.9-2,1.4-3.4,1.4c-1.3,0-2.4-0.5-3.4-1.4C534.2,198.5,533.7,197.4,533.7,196.1
			 M535.6,208.7h5.9v45h-5.9V208.7"/>
	</g>
	<g id="g4497-1_1_">
		<path id="path4499-4_1_" class="st0" d="M376,253.7l8.6-60.8h0.9l24.7,49.9l24.6-49.9h0.9l8.7,60.8h-6l-5.9-43.5l-21.5,43.5h-1.5
			l-21.8-43.9l-5.9,43.9L376,253.7"/>
	</g>
	<g id="g4501-4_1_" transform="translate(-0.25253814,0)">
		<path id="path4503-0_1_" class="st0" d="M497.5,208.7v45h-5.7v-7.7c-5.1,6.2-11,9.2-17.6,9.2s-12.2-2.3-16.8-7
			c-4.5-4.7-6.8-10.4-6.8-16.9c0-6.6,2.3-12.1,6.9-16.8c4.6-4.7,10.1-7,16.4-7c7.3,0,13.3,3.1,17.9,9.4v-8.2L497.5,208.7
			 M492.2,231.4c0-5.1-1.7-9.5-5.2-13c-3.4-3.6-7.7-5.3-12.7-5.3c-5,0-9.2,1.8-12.6,5.5c-3.4,3.6-5.2,7.9-5.2,12.9s1.7,9.3,5.3,13
			c3.5,3.6,7.7,5.4,12.5,5.4c4.9,0,9.1-1.8,12.6-5.3C490.4,241.1,492.2,236.7,492.2,231.4"/>
	</g>
	<g id="g4505-7_1_" transform="translate(-1.0101526,0)">
		<path id="path4507-8_1_" class="st0" d="M508.1,208.7h5.9v6.5c1.6-2.7,3.1-4.6,4.6-5.9c1.5-1.2,3.2-1.9,5-1.9
			c1.9,0,3.7,0.5,5.6,1.5l-3.1,4.9c-0.9-0.5-1.7-0.8-2.6-0.8c-1.7,0-3.4,0.9-5,2.7c-1.5,1.8-2.7,4.1-3.4,7c-0.7,2.8-1.1,8-1.1,15.5
			v15.2h-5.9V208.7"/>
	</g>
	<g id="g4509-8_1_" transform="translate(1.0101526,0)">
		<path id="path4511-4_1_" class="st0" d="M666.9,192.8h12c6.4,0,11.2,1.3,14.5,3.9c3.3,2.5,5,6.2,5,11c0,2.7-0.7,5.1-2,7.4
			c-1.3,2.2-3.2,4-5.8,5.3c4.2,1.4,7.3,3.4,9.5,6.1c2.2,2.7,3.3,5.9,3.3,9.7c0,5-1.8,9.2-5.5,12.5c-3.7,3.3-8.4,4.9-14.2,4.9h-16.8
			V192.8 M672.9,198.8v19.5h3.5c5.3,0,9.3-0.9,11.9-2.5c2.6-1.7,3.9-4.4,3.9-8c0-6-4.1-9-12.2-9H672.9 M672.9,224.3v23.4h7.5
			c4.4,0,7.5-0.4,9.6-1.3c2.1-0.9,3.8-2.3,5.1-4.1c1.3-1.9,1.9-3.8,1.9-5.7c0-1.9-0.4-3.6-1.1-5.1c-0.7-1.5-1.8-2.8-3.3-3.9
			c-1.4-1.1-3.1-2-5.2-2.5c-2-0.6-5.7-0.9-11.2-0.9H672.9"/>
	</g>
</g>
<g id="g50">
	<path id="path30" class="st2" d="M311.9,363.5h-14v14.8h-6.1v-34.8H314v4.9h-16.1v10.4h14V363.5z"/>
	<path id="path32" class="st2" d="M324.9,365.1c0-2.5,0.5-4.8,1.5-6.9c1-2,2.4-3.6,4.2-4.7c1.8-1.1,3.9-1.6,6.3-1.6
		c3.5,0,6.3,1.1,8.5,3.4c2.2,2.2,3.4,5.2,3.5,8.9l0,1.4c0,2.6-0.5,4.8-1.5,6.8c-1,2-2.4,3.6-4.2,4.7c-1.8,1.1-3.9,1.7-6.3,1.7
		c-3.6,0-6.6-1.2-8.8-3.6c-2.2-2.4-3.3-5.7-3.3-9.7L324.9,365.1L324.9,365.1z M330.7,365.6c0,2.7,0.5,4.7,1.7,6.3
		c1.1,1.5,2.6,2.3,4.6,2.3c2,0,3.5-0.8,4.6-2.3c1.1-1.5,1.6-3.8,1.6-6.7c0-2.6-0.6-4.7-1.7-6.2c-1.1-1.5-2.7-2.3-4.6-2.3
		c-1.9,0-3.4,0.7-4.5,2.3C331.2,360.4,330.7,362.6,330.7,365.6z"/>
	<path id="path34" class="st2" d="M377.8,375.7c-1.7,2-4.1,3-7.3,3c-2.8,0-4.9-0.8-6.4-2.5s-2.2-4-2.2-7.1v-16.8h5.8v16.7
		c0,3.3,1.4,4.9,4.1,4.9c2.8,0,4.7-1,5.7-3v-18.6h5.8v25.9h-5.5L377.8,375.7z"/>
	<path id="path36" class="st2" d="M405.8,352.4l0.2,3c1.9-2.3,4.4-3.5,7.5-3.5c5.4,0,8.1,3.1,8.2,9.3v17.1H416v-16.8
		c0-1.6-0.4-2.9-1.1-3.6s-1.9-1.2-3.5-1.2c-2.3,0-4.1,1.1-5.2,3.2v18.4h-5.8v-25.9H405.8z"/>
	<path id="path38" class="st2" d="M434.9,365.1c0-4,0.9-7.2,2.8-9.6c1.8-2.4,4.3-3.6,7.4-3.6c2.7,0,5,1,6.6,2.9v-13.3h5.8v36.7h-5.3
		l-0.3-2.7c-1.7,2.1-4.1,3.2-7,3.2c-3,0-5.5-1.2-7.3-3.7C435.8,372.7,434.9,369.3,434.9,365.1z M440.7,365.6c0,2.6,0.5,4.7,1.5,6.2
		c1,1.5,2.4,2.2,4.3,2.2c2.4,0,4.1-1.1,5.2-3.2v-11.1c-1.1-2.1-2.8-3.1-5.2-3.1c-1.9,0-3.3,0.7-4.4,2.2
		C441.2,360.4,440.7,362.6,440.7,365.6z"/>
	<path id="path40" class="st2" d="M488.8,378.3c-0.3-0.5-0.5-1.3-0.7-2.4c-1.8,1.9-4.1,2.9-6.8,2.9c-2.6,0-4.7-0.7-6.4-2.2
		c-1.6-1.5-2.5-3.3-2.5-5.5c0-2.8,1-4.9,3.1-6.4c2-1.5,5-2.2,8.8-2.2h3.6v-1.7c0-1.3-0.4-2.4-1.1-3.2c-0.7-0.8-1.9-1.2-3.4-1.2
		c-1.3,0-2.4,0.3-3.3,1c-0.9,0.7-1.3,1.5-1.3,2.5H473c0-1.4,0.5-2.8,1.4-4c0.9-1.2,2.2-2.2,3.8-2.9c1.6-0.7,3.4-1.1,5.4-1.1
		c3,0,5.4,0.8,7.2,2.3c1.8,1.5,2.7,3.7,2.8,6.4v11.7c0,2.3,0.3,4.2,1,5.6v0.4C494.7,378.3,488.8,378.3,488.8,378.3z M482.4,374.1
		c1.2,0,2.2-0.3,3.2-0.8c1-0.6,1.8-1.3,2.3-2.2v-4.9h-3.1c-2.1,0-3.8,0.4-4.9,1.1s-1.6,1.8-1.6,3.2c0,1.1,0.4,2,1.1,2.7
		C480.2,373.8,481.1,374.1,482.4,374.1z"/>
	<path id="path42" class="st2" d="M518.2,346.1v6.3h4.6v4.3h-4.6v14.5c0,1,0.2,1.7,0.6,2.1c0.4,0.4,1.1,0.7,2.1,0.7
		c0.7,0,1.4-0.1,2-0.2v4.5c-1.3,0.4-2.6,0.5-3.8,0.5c-4.5,0-6.7-2.5-6.7-7.4v-14.7h-4.3v-4.3h4.3v-6.3H518.2z"/>
	<path id="path44" class="st2" d="M539.8,345.7c0-0.9,0.3-1.6,0.9-2.2s1.4-0.9,2.4-0.9c1.1,0,1.9,0.3,2.4,0.9
		c0.6,0.6,0.9,1.3,0.9,2.2c0,0.9-0.3,1.6-0.9,2.2s-1.4,0.9-2.4,0.9s-1.9-0.3-2.4-0.9C540.1,347.3,539.8,346.5,539.8,345.7z
		 M546,378.3h-5.8v-25.9h5.8V378.3z"/>
	<path id="path46" class="st2" d="M560.9,365.1c0-2.5,0.5-4.8,1.5-6.9c1-2,2.4-3.6,4.2-4.7c1.8-1.1,3.9-1.6,6.3-1.6
		c3.5,0,6.3,1.1,8.5,3.4c2.2,2.2,3.4,5.2,3.5,8.9l0,1.4c0,2.6-0.5,4.8-1.5,6.8c-1,2-2.4,3.6-4.2,4.7c-1.8,1.1-3.9,1.7-6.3,1.7
		c-3.6,0-6.6-1.2-8.8-3.6c-2.2-2.4-3.3-5.7-3.3-9.7L560.9,365.1L560.9,365.1z M566.8,365.6c0,2.7,0.5,4.7,1.7,6.3
		c1.1,1.5,2.6,2.3,4.6,2.3c2,0,3.5-0.8,4.6-2.3c1.1-1.5,1.6-3.8,1.6-6.7c0-2.6-0.6-4.7-1.7-6.2c-1.1-1.5-2.7-2.3-4.6-2.3
		c-1.9,0-3.4,0.7-4.5,2.3C567.3,360.4,566.8,362.6,566.8,365.6z"/>
	<path id="path48" class="st2" d="M603.6,352.4l0.2,3c1.9-2.3,4.4-3.5,7.5-3.5c5.4,0,8.1,3.1,8.2,9.3v17.1h-5.8v-16.8
		c0-1.6-0.4-2.9-1.1-3.6c-0.7-0.8-1.9-1.2-3.5-1.2c-2.3,0-4.1,1.1-5.2,3.2v18.4h-5.8v-25.9H603.6z"/>
</g>
</svg>
